<svg width="18" height="18" viewBox="0 0 18 18" fill="none" xmlns="http://www.w3.org/2000/svg">
<path d="M17.6813 0.319824H5.5285V4.79031C4.37628 5.02582 3.30936 5.56904 2.44109 6.36227C1.57283 7.15549 0.935639 8.16909 0.597217 9.2954C0.258794 10.4217 0.231778 11.6186 0.519037 12.7591C0.806297 13.8995 1.3971 14.9408 2.2287 15.7724C3.06029 16.604 4.10161 17.1948 5.24203 17.4821C6.38246 17.7693 7.5794 17.7423 8.70571 17.4039C9.83201 17.0655 10.8456 16.4283 11.6388 15.56C12.4321 14.6917 12.9753 13.6248 13.2108 12.4726H17.6813V0.319824ZM13.3271 10.7365C13.2221 9.16316 12.5497 7.68139 11.4347 6.5664C10.3197 5.45141 8.83795 4.77898 7.26461 4.67399V2.05594H15.9452V10.7365H13.3271ZM6.83059 6.39621C8.09681 6.39621 9.31117 6.89922 10.2065 7.79458C11.1019 8.68993 11.6049 9.90429 11.6049 11.1705C11.6049 12.4367 11.1019 13.6511 10.2065 14.5465C9.31117 15.4418 8.09681 15.9448 6.83059 15.9448C5.56436 15.9448 4.35 15.4418 3.45464 14.5465C2.55929 13.6511 2.05628 12.4367 2.05628 11.1705C2.05628 9.90429 2.55929 8.68993 3.45464 7.79458C4.35 6.89922 5.56436 6.39621 6.83059 6.39621Z" fill="white"/>
</svg>
