<svg width="18" height="18" viewBox="0 0 18 18" fill="none" xmlns="http://www.w3.org/2000/svg">
<path d="M17.6812 0.319824H5.52844V4.79031C4.37621 5.02582 3.3093 5.56904 2.44103 6.36227C1.57277 7.15549 0.935578 8.16909 0.597156 9.2954C0.258733 10.4217 0.231717 11.6186 0.518976 12.7591C0.806236 13.8995 1.39704 14.9408 2.22863 15.7724C3.06023 16.604 4.10155 17.1948 5.24197 17.4821C6.3824 17.7693 7.57934 17.7423 8.70565 17.4039C9.83195 17.0655 10.8456 16.4283 11.6388 15.56C12.432 14.6917 12.9752 13.6248 13.2107 12.4726H17.6812V0.319824ZM13.3271 10.7365C13.2221 9.16316 12.5496 7.68139 11.4346 6.5664C10.3197 5.45141 8.83789 4.77898 7.26455 4.67399V2.05594H15.9451V10.7365H13.3271ZM6.83052 6.39621C8.09675 6.39621 9.31111 6.89922 10.2065 7.79458C11.1018 8.68993 11.6048 9.90429 11.6048 11.1705C11.6048 12.4367 11.1018 13.6511 10.2065 14.5465C9.31111 15.4418 8.09675 15.9448 6.83052 15.9448C5.5643 15.9448 4.34994 15.4418 3.45458 14.5465C2.55922 13.6511 2.05622 12.4367 2.05622 11.1705C2.05622 9.90429 2.55922 8.68993 3.45458 7.79458C4.34994 6.89922 5.5643 6.39621 6.83052 6.39621Z" fill="#141414"/>
</svg>
